<svg width="518" height="518" viewBox="0 0 518 518" fill="none" xmlns="http://www.w3.org/2000/svg">
<path d="M518 396.167H0V396.426H518V396.167Z" fill="#EBEBEB"/>
<path d="M466.096 412.835H431.784V413.094H466.096V412.835Z" fill="#EBEBEB"/>
<path d="M343.144 415.653H334.141V415.912H343.144V415.653Z" fill="#EBEBEB"/>
<path d="M430.748 403.222H410.867V403.481H430.748V403.222Z" fill="#EBEBEB"/>
<path d="M99.0934 404.962H54.3485V405.221H99.0934V404.962Z" fill="#EBEBEB"/>
<path d="M114.882 404.962H108.324V405.221H114.882V404.962Z" fill="#EBEBEB"/>
<path d="M233.255 409.334H136.203V409.593H233.255V409.334Z" fill="#EBEBEB"/>
<path d="M245.532 349.961H45.4908C43.9237 349.958 42.4217 349.334 41.3145 348.224C40.2074 347.115 39.5856 345.612 39.5856 344.045V62.8437C39.5992 61.2856 40.2271 59.7958 41.3327 58.6979C42.4384 57.6 43.9326 56.9826 45.4908 56.98H245.532C247.101 56.98 248.606 57.6032 249.715 58.7126C250.824 59.822 251.448 61.3266 251.448 62.8955V344.045C251.448 345.614 250.824 347.119 249.715 348.228C248.606 349.338 247.101 349.961 245.532 349.961ZM45.4908 57.1872C43.9924 57.1899 42.5562 57.7871 41.4977 58.8476C40.4391 59.9081 39.8446 61.3453 39.8446 62.8437V344.045C39.8446 345.544 40.4391 346.981 41.4977 348.041C42.5562 349.102 43.9924 349.699 45.4908 349.702H245.532C247.031 349.699 248.469 349.102 249.529 348.042C250.589 346.982 251.186 345.545 251.189 344.045V62.8437C251.186 61.3444 250.589 59.9072 249.529 58.847C248.469 57.7868 247.031 57.1899 245.532 57.1872H45.4908Z" fill="#EBEBEB"/>
<path d="M469.629 349.961H269.578C268.009 349.958 266.506 349.334 265.398 348.225C264.289 347.116 263.665 345.613 263.662 344.045V62.8437C263.678 61.2847 264.308 59.7949 265.416 58.6972C266.523 57.5996 268.018 56.9826 269.578 56.98H469.629C471.186 56.9854 472.677 57.6039 473.781 58.7015C474.884 59.7992 475.51 61.2874 475.524 62.8437V344.045C475.524 345.611 474.904 347.112 473.799 348.221C472.694 349.33 471.194 349.955 469.629 349.961ZM269.578 57.1872C268.078 57.1899 266.641 57.7868 265.581 58.847C264.521 59.9072 263.924 61.3444 263.921 62.8437V344.045C263.924 345.545 264.521 346.982 265.581 348.042C266.641 349.102 268.078 349.699 269.578 349.702H469.629C471.129 349.699 472.566 349.102 473.626 348.042C474.686 346.982 475.283 345.545 475.286 344.045V62.8437C475.283 61.3444 474.686 59.9072 473.626 58.847C472.566 57.7868 471.129 57.1899 469.629 57.1872H269.578Z" fill="#EBEBEB"/>
<path d="M438.787 391.349H436.063V139.404H432.716V391.349H429.992L428.521 396.167H432.716H436.063H440.259L438.787 391.349Z" fill="#F0F0F0"/>
<path d="M437.523 144.46L466.946 122.144C467.816 121.492 468.458 120.583 468.782 119.545C469.106 118.507 469.096 117.394 468.752 116.362C468.408 115.331 467.749 114.434 466.867 113.798C465.985 113.162 464.925 112.82 463.838 112.82H404.962C403.875 112.82 402.815 113.162 401.933 113.798C401.051 114.434 400.392 115.331 400.048 116.362C399.704 117.394 399.693 118.507 400.018 119.545C400.342 120.583 400.984 121.492 401.854 122.144L431.287 144.46C432.185 145.137 433.28 145.504 434.405 145.504C435.53 145.504 436.625 145.137 437.523 144.46Z" fill="#EBEBEB"/>
<path d="M285.169 326.34H218.078L211.676 262.222C211.607 261.556 211.676 260.883 211.88 260.244C212.083 259.606 212.416 259.017 212.857 258.513C213.299 258.01 213.839 257.602 214.445 257.317C215.051 257.032 215.71 256.875 216.379 256.855H273.504C274.897 256.923 276.213 257.512 277.191 258.507C278.168 259.502 278.735 260.828 278.777 262.222L285.169 326.34Z" fill="#E6E6E6"/>
<path d="M291.945 326.34H224.812L218.409 262.222C218.341 261.556 218.41 260.883 218.614 260.244C218.817 259.606 219.15 259.017 219.591 258.513C220.033 258.01 220.573 257.602 221.179 257.317C221.785 257.032 222.443 256.875 223.113 256.855H280.238C281.63 256.923 282.945 257.513 283.921 258.508C284.896 259.503 285.461 260.829 285.501 262.222L291.945 326.34Z" fill="#F5F5F5"/>
<path d="M226.376 311.37H272.903V326.288H221.207V316.55C221.207 315.178 221.751 313.862 222.72 312.89C223.69 311.919 225.004 311.372 226.376 311.37Z" fill="#E6E6E6"/>
<path d="M262.792 311.37H321.844C323.218 311.37 324.535 311.915 325.507 312.887C326.478 313.858 327.024 315.176 327.024 316.55V326.288H257.612V316.55C257.612 315.176 258.158 313.858 259.129 312.887C260.1 311.915 261.418 311.37 262.792 311.37Z" fill="#F5F5F5"/>
<path d="M222.678 326.288H218.078V396.166H222.678V326.288Z" fill="#E6E6E6"/>
<path d="M256.441 326.288H251.841V396.166H256.441V326.288Z" fill="#E6E6E6"/>
<path d="M292.225 326.288H287.625V396.166H292.225V326.288Z" fill="#E6E6E6"/>
<path d="M325.988 326.288H321.388V396.166H325.988V326.288Z" fill="#E6E6E6"/>
<path d="M422.688 326.34H355.586L349.194 262.222C349.125 261.556 349.195 260.883 349.398 260.244C349.602 259.606 349.934 259.017 350.376 258.513C350.817 258.01 351.358 257.602 351.964 257.317C352.57 257.032 353.228 256.875 353.898 256.855H411.023C412.414 256.923 413.73 257.513 414.705 258.508C415.681 259.503 416.245 260.829 416.285 262.222L422.688 326.34Z" fill="#E6E6E6"/>
<path d="M429.453 326.34H362.362L355.97 262.222C355.901 261.557 355.97 260.884 356.173 260.247C356.376 259.609 356.707 259.02 357.148 258.517C357.588 258.013 358.127 257.606 358.732 257.32C359.337 257.034 359.994 256.876 360.663 256.855H417.788C419.181 256.92 420.499 257.509 421.477 258.504C422.455 259.499 423.021 260.827 423.061 262.222L429.453 326.34Z" fill="#F5F5F5"/>
<path d="M363.895 311.37H410.422V326.288H358.725V316.55C358.725 315.178 359.27 313.862 360.239 312.89C361.208 311.919 362.523 311.372 363.895 311.37Z" fill="#E6E6E6"/>
<path d="M400.31 311.37H459.362C460.736 311.37 462.054 311.915 463.025 312.887C463.997 313.858 464.542 315.176 464.542 316.55V326.288H395.13V316.55C395.13 315.176 395.676 313.858 396.648 312.887C397.619 311.915 398.937 311.37 400.31 311.37Z" fill="#F5F5F5"/>
<path d="M360.186 326.288H355.586V396.166H360.186V326.288Z" fill="#E6E6E6"/>
<path d="M393.949 326.288H389.349V396.166H393.949V326.288Z" fill="#E6E6E6"/>
<path d="M429.743 326.288H425.143V396.166H429.743V326.288Z" fill="#E6E6E6"/>
<path d="M463.506 326.288H458.907V396.166H463.506V326.288Z" fill="#E6E6E6"/>
<path d="M147.651 326.34H80.5593L74.1672 262.222C74.097 261.556 74.1651 260.883 74.3672 260.245C74.5693 259.607 74.9011 259.018 75.3417 258.514C75.7823 258.01 76.3223 257.603 76.9278 257.317C77.5333 257.032 78.1912 256.875 78.8603 256.855H135.985C137.379 256.92 138.697 257.509 139.675 258.504C140.652 259.499 141.218 260.827 141.259 262.222L147.651 326.34Z" fill="#E6E6E6"/>
<path d="M154.426 326.34H87.3348L80.9427 262.222C80.8725 261.556 80.9406 260.883 81.1427 260.245C81.3448 259.607 81.6766 259.018 82.1172 258.514C82.5578 258.01 83.0978 257.603 83.7033 257.317C84.3088 257.032 84.9667 256.875 85.6358 256.855H142.761C144.154 256.923 145.47 257.512 146.447 258.507C147.425 259.502 147.991 260.828 148.034 262.222L154.426 326.34Z" fill="#F5F5F5"/>
<path d="M88.8577 311.37H135.385V326.288H83.6881V316.55C83.6881 315.178 84.2324 313.862 85.2016 312.89C86.1708 311.919 87.4857 311.372 88.8577 311.37Z" fill="#E6E6E6"/>
<path d="M125.273 311.37H184.325C185.699 311.37 187.017 311.915 187.988 312.887C188.959 313.858 189.505 315.176 189.505 316.55V326.288H120.093V316.55C120.093 315.176 120.639 313.858 121.61 312.887C122.582 311.915 123.899 311.37 125.273 311.37Z" fill="#F5F5F5"/>
<path d="M85.1592 326.288H80.5593V396.166H85.1592V326.288Z" fill="#E6E6E6"/>
<path d="M118.922 326.288H114.323V396.166H118.922V326.288Z" fill="#E6E6E6"/>
<path d="M154.716 326.288H150.116V396.166H154.716V326.288Z" fill="#E6E6E6"/>
<path d="M188.479 326.288H183.88V396.166H188.479V326.288Z" fill="#E6E6E6"/>
<path d="M163.47 202.631H57.6119V74.0532H163.47V202.631ZM58.6479 201.595H162.434V75.0892H58.6479V201.595Z" fill="#F0F0F0"/>
<path d="M152.592 191.753V84.9312H68.4899V191.753H152.592Z" fill="#F0F0F0"/>
<path d="M259 442.952C369.938 442.952 459.87 437.701 459.87 431.225C459.87 424.748 369.938 419.497 259 419.497C148.063 419.497 58.13 424.748 58.13 431.225C58.13 437.701 148.063 442.952 259 442.952Z" fill="#F5F5F5"/>
<path d="M392.002 93.354H110.406C103.54 93.354 97.9745 98.92 97.9745 105.786V261.88C97.9745 268.746 103.54 274.312 110.406 274.312H392.002C398.868 274.312 404.434 268.746 404.434 261.88V105.786C404.434 98.92 398.868 93.354 392.002 93.354Z" fill="white"/>
<path d="M391.991 274.83H110.407C106.973 274.827 103.681 273.462 101.253 271.034C98.8245 268.606 97.4593 265.314 97.4565 261.88V105.786C97.4593 102.352 98.8245 99.0599 101.253 96.6319C103.681 94.2039 106.973 92.8387 110.407 92.8359H391.991C395.425 92.8387 398.717 94.2039 401.145 96.6319C403.573 99.0599 404.939 102.352 404.941 105.786V261.88C404.939 265.314 403.573 268.606 401.145 271.034C398.717 273.462 395.425 274.827 391.991 274.83ZM110.407 93.8719C107.248 93.8747 104.219 95.1308 101.985 97.3645C99.7514 99.5982 98.4953 102.627 98.4925 105.786V261.88C98.4953 265.039 99.7514 268.068 101.985 270.302C104.219 272.535 107.248 273.791 110.407 273.794H391.991C395.15 273.791 398.179 272.535 400.413 270.302C402.647 268.068 403.903 265.039 403.905 261.88V105.786C403.903 102.627 402.647 99.5982 400.413 97.3645C398.179 95.1308 395.15 93.8747 391.991 93.8719H110.407Z" fill="#6C63FF"/>
<path d="M396.135 252.308V115.359C396.135 107.783 389.994 101.642 382.419 101.642L119.969 101.642C112.393 101.642 106.252 107.783 106.252 115.359V252.308C106.252 259.883 112.393 266.024 119.969 266.024H382.419C389.994 266.024 396.135 259.883 396.135 252.308Z" fill="#F5F5F5"/>
<path d="M396.788 120.466H105.61V121.502H396.788V120.466Z" fill="white"/>
<path d="M396.788 145.6H105.61V146.636H396.788V145.6Z" fill="white"/>
<path d="M396.788 170.743H105.61V171.779H396.788V170.743Z" fill="white"/>
<path d="M396.788 195.887H105.61V196.923H396.788V195.887Z" fill="white"/>
<path d="M396.788 221.02H105.61V222.056H396.788V221.02Z" fill="white"/>
<path d="M396.788 246.164H105.61V247.2H396.788V246.164Z" fill="white"/>
<path d="M98.2957 235.12L97.6431 234.302L130.609 208.081L159.72 223.455L178.575 193.069L205.625 205.449L216.338 170.443L243.678 207.096L275.638 157.959L276.508 158.518L243.729 208.909L216.731 172.701L206.268 206.879L178.979 194.395L160.083 224.822L130.723 209.313L98.2957 235.12Z" fill="#6C63FF"/>
<path d="M133.717 208.692C133.719 209.297 133.541 209.889 133.206 210.393C132.872 210.897 132.395 211.29 131.837 211.523C131.279 211.756 130.664 211.818 130.07 211.701C129.477 211.584 128.931 211.294 128.503 210.867C128.074 210.44 127.782 209.895 127.664 209.302C127.545 208.709 127.605 208.094 127.836 207.535C128.067 206.976 128.458 206.498 128.961 206.162C129.464 205.826 130.055 205.646 130.66 205.646C131.469 205.646 132.245 205.967 132.818 206.537C133.391 207.108 133.714 207.883 133.717 208.692Z" fill="white"/>
<path d="M130.66 212.266C129.953 212.266 129.262 212.056 128.675 211.664C128.087 211.271 127.629 210.713 127.358 210.06C127.088 209.407 127.017 208.688 127.155 207.995C127.293 207.301 127.633 206.664 128.133 206.165C128.633 205.665 129.27 205.324 129.963 205.186C130.656 205.048 131.375 205.119 132.028 205.39C132.681 205.66 133.239 206.118 133.632 206.706C134.025 207.294 134.235 207.985 134.235 208.692C134.235 209.64 133.858 210.549 133.188 211.219C132.517 211.89 131.608 212.266 130.66 212.266ZM130.66 206.164C130.158 206.164 129.667 206.313 129.249 206.593C128.832 206.872 128.506 207.269 128.314 207.733C128.123 208.198 128.073 208.709 128.172 209.201C128.271 209.694 128.513 210.146 128.869 210.501C129.225 210.855 129.679 211.096 130.172 211.193C130.665 211.29 131.175 211.238 131.639 211.044C132.103 210.851 132.498 210.524 132.776 210.105C133.054 209.686 133.201 209.194 133.199 208.692C133.199 208.359 133.133 208.029 133.005 207.722C132.877 207.415 132.69 207.136 132.455 206.901C132.219 206.666 131.939 206.48 131.631 206.353C131.323 206.227 130.993 206.163 130.66 206.164Z" fill="#6C63FF"/>
<path d="M181.828 193.732C181.83 194.337 181.653 194.93 181.318 195.434C180.983 195.938 180.505 196.331 179.946 196.564C179.388 196.796 178.772 196.858 178.178 196.74C177.585 196.623 177.039 196.331 176.611 195.903C176.183 195.475 175.892 194.93 175.774 194.336C175.657 193.742 175.718 193.127 175.951 192.568C176.183 192.009 176.576 191.532 177.081 191.197C177.585 190.862 178.177 190.684 178.782 190.686C179.59 190.686 180.365 191.007 180.936 191.578C181.507 192.149 181.828 192.924 181.828 193.732Z" fill="white"/>
<path d="M178.783 197.296C178.077 197.298 177.387 197.09 176.8 196.7C176.212 196.31 175.754 195.754 175.483 195.103C175.211 194.452 175.139 193.735 175.276 193.043C175.412 192.351 175.751 191.715 176.249 191.215C176.747 190.716 177.382 190.376 178.073 190.237C178.765 190.099 179.482 190.169 180.134 190.438C180.785 190.708 181.343 191.164 181.735 191.751C182.127 192.337 182.336 193.026 182.336 193.732C182.333 194.674 181.958 195.578 181.293 196.245C180.627 196.913 179.725 197.29 178.783 197.296ZM178.783 191.204C178.282 191.202 177.792 191.348 177.375 191.625C176.958 191.901 176.633 192.296 176.44 192.757C176.247 193.219 176.195 193.728 176.292 194.219C176.388 194.71 176.628 195.161 176.981 195.516C177.334 195.87 177.785 196.112 178.275 196.21C178.766 196.309 179.275 196.259 179.737 196.068C180.2 195.877 180.595 195.553 180.873 195.137C181.152 194.721 181.3 194.232 181.3 193.732C181.297 193.064 181.032 192.424 180.56 191.951C180.089 191.478 179.45 191.209 178.783 191.204Z" fill="#6C63FF"/>
<path d="M208.992 206.164C208.994 206.769 208.817 207.362 208.482 207.866C208.146 208.37 207.669 208.763 207.11 208.996C206.552 209.229 205.936 209.29 205.342 209.172C204.749 209.055 204.203 208.763 203.775 208.335C203.347 207.907 203.056 207.362 202.938 206.768C202.821 206.174 202.882 205.559 203.115 205C203.347 204.441 203.74 203.964 204.245 203.629C204.749 203.294 205.341 203.116 205.946 203.118C206.347 203.117 206.743 203.195 207.114 203.347C207.484 203.5 207.82 203.724 208.103 204.007C208.386 204.29 208.611 204.627 208.763 204.997C208.916 205.367 208.994 205.764 208.992 206.164Z" fill="white"/>
<path d="M205.946 209.728C205.242 209.728 204.553 209.519 203.966 209.127C203.38 208.736 202.924 208.179 202.654 207.528C202.384 206.877 202.314 206.16 202.451 205.469C202.589 204.777 202.928 204.142 203.426 203.644C203.925 203.146 204.56 202.806 205.251 202.669C205.942 202.531 206.659 202.602 207.31 202.871C207.961 203.141 208.518 203.598 208.91 204.184C209.301 204.77 209.51 205.459 209.51 206.164C209.508 207.108 209.131 208.013 208.463 208.681C207.796 209.349 206.891 209.725 205.946 209.728ZM205.946 203.636C205.446 203.636 204.958 203.784 204.542 204.062C204.126 204.34 203.802 204.735 203.611 205.197C203.42 205.658 203.37 206.167 203.467 206.657C203.565 207.147 203.805 207.598 204.159 207.951C204.512 208.305 204.963 208.546 205.453 208.643C205.944 208.741 206.452 208.691 206.914 208.499C207.376 208.308 207.77 207.984 208.048 207.568C208.326 207.153 208.474 206.664 208.474 206.164C208.472 205.494 208.204 204.853 207.731 204.38C207.257 203.906 206.616 203.639 205.946 203.636Z" fill="#6C63FF"/>
<path d="M219.632 171.572C219.634 172.175 219.458 172.765 219.125 173.267C218.793 173.77 218.319 174.163 217.764 174.398C217.209 174.632 216.597 174.697 216.005 174.584C215.413 174.472 214.867 174.187 214.437 173.765C214.006 173.343 213.71 172.803 213.586 172.214C213.461 171.624 213.514 171.011 213.737 170.451C213.96 169.891 214.343 169.41 214.839 169.067C215.335 168.725 215.921 168.537 216.524 168.526C216.929 168.519 217.331 168.593 217.707 168.743C218.083 168.893 218.426 169.116 218.715 169.399C219.004 169.683 219.234 170.021 219.392 170.394C219.549 170.767 219.631 171.167 219.632 171.572Z" fill="white"/>
<path d="M216.524 175.146C215.817 175.146 215.126 174.936 214.538 174.544C213.951 174.151 213.492 173.593 213.222 172.94C212.951 172.286 212.881 171.568 213.019 170.874C213.156 170.181 213.497 169.544 213.997 169.044C214.497 168.545 215.133 168.204 215.827 168.066C216.52 167.928 217.239 167.999 217.892 168.27C218.545 168.54 219.103 168.998 219.496 169.586C219.889 170.174 220.098 170.865 220.098 171.572C220.098 172.52 219.722 173.429 219.051 174.099C218.381 174.769 217.472 175.146 216.524 175.146ZM216.524 169.044C216.022 169.044 215.53 169.193 215.113 169.472C214.695 169.752 214.37 170.149 214.178 170.613C213.986 171.078 213.937 171.588 214.035 172.081C214.134 172.574 214.377 173.026 214.733 173.381C215.089 173.735 215.542 173.976 216.035 174.073C216.528 174.17 217.039 174.118 217.503 173.924C217.966 173.73 218.362 173.403 218.64 172.985C218.917 172.566 219.064 172.074 219.062 171.572C219.062 171.239 218.997 170.909 218.869 170.602C218.741 170.295 218.554 170.016 218.318 169.781C218.082 169.546 217.802 169.36 217.495 169.233C217.187 169.107 216.857 169.043 216.524 169.044Z" fill="#6C63FF"/>
<path d="M246.754 208.008C246.754 208.61 246.576 209.199 246.243 209.7C245.909 210.202 245.435 210.593 244.879 210.826C244.324 211.059 243.712 211.122 243.121 211.009C242.529 210.895 241.985 210.609 241.555 210.187C241.126 209.764 240.831 209.225 240.707 208.635C240.584 208.046 240.637 207.433 240.86 206.874C241.084 206.314 241.467 205.834 241.963 205.492C242.459 205.15 243.044 204.962 243.646 204.952C244.052 204.945 244.455 205.019 244.832 205.169C245.209 205.32 245.552 205.544 245.841 205.828C246.13 206.113 246.36 206.452 246.517 206.826C246.674 207.2 246.755 207.602 246.754 208.008Z" fill="white"/>
<path d="M243.698 211.572C242.991 211.572 242.3 211.362 241.712 210.969C241.124 210.575 240.665 210.017 240.395 209.363C240.125 208.709 240.055 207.99 240.194 207.296C240.332 206.603 240.674 205.966 241.175 205.467C241.676 204.967 242.313 204.627 243.007 204.491C243.701 204.354 244.42 204.426 245.073 204.698C245.726 204.971 246.284 205.43 246.675 206.019C247.067 206.609 247.275 207.301 247.273 208.008C247.273 208.477 247.18 208.941 247 209.374C246.821 209.807 246.557 210.201 246.225 210.532C245.893 210.863 245.499 211.125 245.065 211.303C244.632 211.482 244.167 211.573 243.698 211.572ZM243.698 205.47C243.196 205.47 242.706 205.619 242.288 205.897C241.871 206.176 241.545 206.573 241.353 207.037C241.161 207.5 241.111 208.011 241.209 208.503C241.307 208.995 241.549 209.448 241.904 209.803C242.259 210.158 242.711 210.399 243.203 210.497C243.696 210.595 244.206 210.545 244.67 210.353C245.133 210.161 245.53 209.835 245.809 209.418C246.088 209.001 246.237 208.51 246.237 208.008C246.237 207.335 245.969 206.689 245.493 206.213C245.017 205.737 244.371 205.47 243.698 205.47Z" fill="#6C63FF"/>
<path d="M284.33 166.505C288.893 161.942 288.893 154.543 284.33 149.979C279.766 145.415 272.367 145.415 267.803 149.979C263.239 154.543 263.239 161.942 267.803 166.505C272.367 171.069 279.766 171.069 284.33 166.505Z" fill="white"/>
<path d="M276.073 170.443C273.66 170.443 271.3 169.727 269.293 168.386C267.286 167.045 265.722 165.139 264.798 162.909C263.875 160.679 263.633 158.225 264.104 155.858C264.575 153.49 265.737 151.316 267.444 149.609C269.151 147.902 271.325 146.74 273.692 146.269C276.06 145.798 278.514 146.04 280.744 146.964C282.974 147.887 284.88 149.452 286.221 151.459C287.562 153.465 288.277 155.825 288.277 158.239C288.275 161.475 286.988 164.577 284.7 166.865C282.412 169.153 279.309 170.44 276.073 170.443ZM276.073 147.071C273.865 147.071 271.705 147.726 269.869 148.953C268.032 150.18 266.601 151.924 265.755 153.965C264.91 156.006 264.689 158.251 265.12 160.418C265.551 162.584 266.614 164.574 268.176 166.136C269.738 167.698 271.728 168.761 273.895 169.192C276.061 169.623 278.306 169.402 280.347 168.557C282.388 167.711 284.132 166.28 285.359 164.443C286.586 162.607 287.241 160.448 287.241 158.239C287.228 155.285 286.045 152.456 283.953 150.372C281.86 148.287 279.027 147.115 276.073 147.112V147.071Z" fill="#6C63FF"/>
<path d="M283.046 158.238C283.046 159.617 282.637 160.965 281.871 162.112C281.104 163.259 280.016 164.152 278.742 164.68C277.468 165.208 276.066 165.346 274.713 165.077C273.361 164.808 272.118 164.144 271.143 163.169C270.168 162.193 269.504 160.951 269.235 159.599C268.966 158.246 269.104 156.844 269.632 155.57C270.16 154.296 271.053 153.207 272.2 152.441C273.346 151.675 274.694 151.266 276.073 151.266C277.923 151.266 279.696 152.001 281.004 153.308C282.311 154.616 283.046 156.389 283.046 158.238Z" fill="#6C63FF"/>
<path d="M162.952 224.139C162.955 224.744 162.777 225.335 162.442 225.839C162.108 226.343 161.631 226.737 161.073 226.97C160.515 227.202 159.9 227.264 159.306 227.148C158.713 227.031 158.167 226.741 157.739 226.314C157.31 225.887 157.018 225.342 156.9 224.749C156.781 224.156 156.841 223.541 157.072 222.982C157.303 222.423 157.694 221.945 158.197 221.609C158.7 221.272 159.291 221.093 159.896 221.093C160.705 221.093 161.481 221.413 162.054 221.984C162.627 222.555 162.95 223.33 162.952 224.139Z" fill="white"/>
<path d="M159.896 227.713C159.189 227.713 158.498 227.503 157.911 227.11C157.323 226.718 156.865 226.16 156.594 225.506C156.324 224.853 156.253 224.135 156.391 223.441C156.529 222.748 156.869 222.111 157.369 221.611C157.869 221.111 158.506 220.771 159.199 220.633C159.892 220.495 160.611 220.566 161.264 220.837C161.917 221.107 162.475 221.565 162.868 222.153C163.261 222.741 163.47 223.432 163.47 224.139C163.47 225.087 163.094 225.996 162.424 226.666C161.753 227.336 160.844 227.713 159.896 227.713ZM159.896 221.611C159.394 221.611 158.903 221.76 158.485 222.039C158.067 222.319 157.742 222.716 157.55 223.18C157.358 223.644 157.309 224.155 157.408 224.648C157.506 225.141 157.749 225.593 158.105 225.947C158.461 226.302 158.914 226.543 159.407 226.64C159.9 226.736 160.411 226.685 160.875 226.491C161.338 226.297 161.734 225.97 162.012 225.552C162.289 225.133 162.436 224.641 162.434 224.139C162.434 223.806 162.369 223.476 162.241 223.169C162.113 222.862 161.926 222.582 161.69 222.348C161.455 222.113 161.175 221.927 160.867 221.8C160.559 221.674 160.229 221.609 159.896 221.611Z" fill="#6C63FF"/>
<path d="M358.497 144.118C362.302 144.118 365.387 141.034 365.387 137.229C365.387 133.424 362.302 130.339 358.497 130.339C354.693 130.339 351.608 133.424 351.608 137.229C351.608 141.034 354.693 144.118 358.497 144.118Z" fill="#263238"/>
<path d="M354.83 152.126C358.635 152.126 361.719 149.042 361.719 145.237C361.719 141.432 358.635 138.348 354.83 138.348C351.025 138.348 347.941 141.432 347.941 145.237C347.941 149.042 351.025 152.126 354.83 152.126Z" fill="#263238"/>
<path d="M367.542 143.465C367.542 144.478 367.242 145.467 366.679 146.309C366.117 147.15 365.318 147.806 364.382 148.194C363.447 148.581 362.418 148.682 361.425 148.485C360.433 148.288 359.521 147.8 358.805 147.084C358.089 146.369 357.602 145.457 357.404 144.464C357.207 143.471 357.308 142.442 357.696 141.507C358.083 140.572 358.739 139.773 359.581 139.21C360.422 138.648 361.412 138.348 362.424 138.348C363.78 138.35 365.081 138.89 366.04 139.85C366.999 140.809 367.539 142.109 367.542 143.465Z" fill="#263238"/>
<path d="M365.076 149.412C365.078 150.427 364.779 151.42 364.216 152.265C363.653 153.11 362.853 153.769 361.915 154.158C360.978 154.548 359.946 154.65 358.95 154.453C357.954 154.255 357.04 153.767 356.322 153.049C355.604 152.331 355.115 151.416 354.918 150.421C354.72 149.425 354.823 148.393 355.212 147.455C355.601 146.518 356.26 145.717 357.105 145.154C357.95 144.592 358.943 144.292 359.958 144.294C361.315 144.297 362.615 144.837 363.574 145.796C364.533 146.756 365.073 148.056 365.076 149.412Z" fill="#263238"/>
<path d="M358.839 153.121C358.827 154.13 358.517 155.114 357.947 155.947C357.377 156.78 356.574 157.427 355.637 157.805C354.701 158.182 353.674 158.275 352.686 158.071C351.697 157.866 350.791 157.374 350.081 156.656C349.372 155.938 348.89 155.026 348.698 154.035C348.505 153.044 348.61 152.018 349 151.086C349.389 150.155 350.045 149.359 350.885 148.799C351.725 148.24 352.712 147.941 353.722 147.941C354.399 147.941 355.069 148.075 355.694 148.336C356.32 148.597 356.886 148.98 357.363 149.462C357.839 149.944 358.214 150.515 358.468 151.143C358.721 151.771 358.848 152.444 358.839 153.121Z" fill="#263238"/>
<path d="M347.941 156.892C351.746 156.892 354.83 153.808 354.83 150.003C354.83 146.198 351.746 143.113 347.941 143.113C344.136 143.113 341.051 146.198 341.051 150.003C341.051 153.808 344.136 156.892 347.941 156.892Z" fill="#263238"/>
<path d="M332.401 171.396C331.251 174.172 330.008 176.628 328.671 179.176C327.335 181.725 325.853 184.139 324.278 186.553C322.701 188.997 320.971 191.34 319.098 193.566C317.199 195.889 315.079 198.023 312.769 199.938L312.313 200.3L312.085 200.476L311.774 200.725C311.089 201.216 310.315 201.568 309.495 201.761C308.258 202.051 306.971 202.051 305.734 201.761C304.028 201.356 302.391 200.704 300.875 199.824C298.309 198.316 295.882 196.583 293.623 194.644C289.384 191.018 285.429 187.073 281.792 182.844L284.9 179.736C286.972 181.414 289.127 183.123 291.282 184.75C293.437 186.376 295.592 187.982 297.798 189.443C299.886 190.899 302.086 192.187 304.377 193.297C305.275 193.746 306.236 194.06 307.226 194.229C307.547 194.229 307.754 194.229 307.547 194.229C307.392 194.264 307.244 194.327 307.112 194.416L307.692 193.887C311.303 190.302 314.437 186.266 317.016 181.88C318.404 179.663 319.668 177.342 320.922 175.011C322.175 172.68 323.346 170.236 324.382 167.977L332.401 171.396Z" fill="#B55B52"/>
<path d="M335.602 170.184C334.421 172.536 333.271 174.618 332.038 176.783C330.805 178.948 329.552 181.031 328.226 183.124C325.573 187.392 322.631 191.473 319.42 195.338C317.728 197.372 315.893 199.283 313.929 201.057L313.1 201.772C312.831 201.989 312.551 202.207 312.261 202.404C311.971 202.6 311.629 202.787 311.308 202.953C310.008 203.613 308.569 203.95 307.112 203.937C305.068 203.877 303.071 203.311 301.3 202.29C300.027 201.581 298.815 200.77 297.674 199.865C296.638 199.037 295.654 198.208 294.732 197.4C292.898 195.783 291.189 194.188 289.552 192.872L294.618 185.62C296.855 187.04 298.762 188.49 300.689 189.764C301.631 190.427 302.553 191.039 303.434 191.577C304.218 192.063 305.039 192.485 305.889 192.841C306.583 193.131 307.153 193.111 306.874 193.017C306.608 192.982 306.338 193.026 306.097 193.142C306.03 193.162 305.967 193.194 305.91 193.235C305.857 193.248 305.808 193.273 305.765 193.307L306.252 192.821C307.716 191.319 309.073 189.716 310.313 188.024C312.945 184.413 315.333 180.63 317.461 176.7C318.549 174.711 319.606 172.681 320.569 170.64C321.533 168.599 322.579 166.496 323.408 164.527L335.602 170.184Z" fill="#6C63FF"/>
<path d="M279.471 177.363L274.291 175.343C273.882 175.207 273.436 175.227 273.041 175.399C272.645 175.571 272.327 175.883 272.147 176.275L270.127 180.709C269.956 181.084 269.924 181.508 270.035 181.904C270.147 182.301 270.396 182.644 270.738 182.875L272.51 184.066C273.666 184.844 275.062 185.182 276.446 185.019L284.071 184.118L287.407 182.222C286.827 178.399 279.471 177.363 279.471 177.363Z" fill="#B55B52"/>
<path d="M325.822 429.391C326.937 428.558 328.184 427.917 329.51 427.495C329.51 427.495 336.047 423.734 339.145 412.432L346.086 410.681C346.711 410.951 347.274 411.346 347.74 411.841C348.207 412.336 348.568 412.921 348.801 413.561C348.921 414.779 348.959 416.005 348.915 417.228C348.977 421.051 348.832 429.66 348.832 429.66H347.93C347.844 427.051 347.602 424.45 347.205 421.869C346.677 419.352 344.998 422.325 344.097 425.174C343.196 428.023 339.29 431.059 333.468 431.204C326.661 431.349 323.895 431.048 325.822 429.391Z" fill="#263238"/>
<path d="M339.145 412.432C336.037 423.734 329.51 427.495 329.51 427.495C330.785 428.065 332.171 428.343 333.568 428.309C334.964 428.275 336.335 427.929 337.581 427.298C340.772 425.734 341.02 421.175 342.367 420.046C344.09 418.458 345.368 416.447 346.076 414.214C346.407 412.442 339.145 412.432 339.145 412.432Z" fill="#B55B52"/>
<path d="M380.212 429.733C380.696 428.427 381.397 427.212 382.284 426.138C382.284 426.138 385.765 419.445 382.284 408.257L387.184 403.077C387.855 402.971 388.541 403.002 389.199 403.167C389.858 403.333 390.476 403.63 391.018 404.04C391.773 405.002 392.466 406.013 393.09 407.065C395.162 410.256 399.71 417.57 399.71 417.57L398.953 418.047C397.473 415.88 395.865 413.805 394.136 411.831C392.333 409.997 392.53 413.416 393.307 416.296C394.084 419.176 392.427 423.848 387.609 427.101C382.025 430.914 379.528 432.167 380.212 429.733Z" fill="#263238"/>
<path d="M382.284 408.257C385.775 419.446 382.284 426.138 382.284 426.138C383.667 425.935 384.986 425.423 386.145 424.642C387.303 423.86 388.271 422.827 388.977 421.621C390.821 418.586 388.573 414.607 389.091 412.939C389.697 410.676 389.697 408.293 389.091 406.029C388.5 404.351 382.284 408.257 382.284 408.257Z" fill="#B55B52"/>
<path d="M328.412 218.689C328.412 218.689 333.872 288.661 335.405 317.006C336.99 346.48 338.855 413.53 338.855 413.53L346.107 414.224C346.107 414.224 356.975 358.104 352.126 317.006C356.415 285.439 357.834 218.689 357.834 218.689H328.412Z" fill="#B55B52"/>
<path opacity="0.2" d="M357.814 218.689H328.412C328.412 218.689 330.339 243.243 332.214 269.163C333.364 284.942 334.504 301.217 335.177 312.748L353.11 352.851C353.693 340.894 353.347 328.91 352.074 317.006C353.773 304.574 355.017 286.568 355.907 269.412C357.296 243.118 357.814 218.689 357.814 218.689Z" fill="black"/>
<path d="M337.073 218.689C337.073 218.689 341.994 306.749 346.977 323.191C352.478 341.373 382.284 406.112 382.284 408.257L389.194 406.33C389.194 406.33 377.871 342.74 363.16 318.456C371.365 285.895 364.91 218.689 364.91 218.689H337.073Z" fill="#B55B52"/>
<path d="M322.859 168.868C322.714 175.602 323.128 194.644 327.863 223.776H367.314C366.734 209.666 365.066 196.167 370.474 169.645C370.682 168.661 370.684 167.645 370.478 166.66C370.273 165.676 369.865 164.745 369.28 163.926C368.696 163.108 367.947 162.42 367.083 161.907C366.218 161.393 365.256 161.065 364.258 160.943C362.02 160.663 359.461 160.404 356.798 160.28C351.094 159.87 345.367 159.87 339.663 160.28C335.975 160.611 332.038 161.212 329.023 161.72C327.327 162.012 325.784 162.885 324.66 164.189C323.535 165.493 322.899 167.147 322.859 168.868Z" fill="white"/>
<path d="M353.131 141.569C352.095 147.091 350.976 157.192 354.83 160.87C354.83 160.87 353.722 168.764 342.616 171.572C335.923 168.081 337.695 160.87 337.695 160.87C343.848 159.399 343.683 154.841 342.616 150.51L353.131 141.569Z" fill="#B55B52"/>
<path opacity="0.2" d="M348.842 145.237L342.626 150.552C342.891 151.549 343.068 152.568 343.154 153.597C345.506 153.255 348.738 150.676 348.987 148.21C349.124 147.219 349.075 146.21 348.842 145.237Z" fill="black"/>
<path d="M358.953 131.458C356.809 140.43 356.084 144.263 350.821 148.138C342.895 153.95 332.67 149.392 332.173 139.964C331.727 131.489 335.281 118.208 344.605 116.136C353.929 114.064 361.098 122.487 358.953 131.458Z" fill="#B55B52"/>
<path d="M348.811 120.041C350.417 123.097 355.39 128.329 356.902 135.032C364.154 132.784 367.076 118.591 357.182 114.82C346.615 118.974 348.811 120.041 348.811 120.041Z" fill="#263238"/>
<path d="M345.32 131.572C345.195 132.318 344.698 132.846 344.211 132.753C343.724 132.66 343.444 132.007 343.579 131.272C343.714 130.536 344.201 129.997 344.688 130.08C345.175 130.163 345.454 130.816 345.32 131.572Z" fill="#263238"/>
<path d="M336.41 129.935C336.275 130.681 335.778 131.209 335.301 131.116C334.825 131.023 334.535 130.37 334.659 129.624C334.783 128.878 335.291 128.36 335.778 128.443C336.265 128.526 336.545 129.2 336.41 129.935Z" fill="#263238"/>
<path d="M335.975 128.526L334.297 127.697C334.297 127.697 334.96 129.241 335.975 128.526Z" fill="#263238"/>
<path d="M338.959 131.738C338.004 133.304 336.839 134.733 335.498 135.985C335.826 136.32 336.223 136.578 336.662 136.743C337.1 136.908 337.57 136.974 338.037 136.939L338.959 131.738Z" fill="#A02724"/>
<path d="M341.155 140.658C340.731 140.654 340.309 140.616 339.891 140.544C339.833 140.533 339.782 140.499 339.749 140.451C339.716 140.402 339.704 140.343 339.715 140.285C339.726 140.227 339.759 140.176 339.808 140.143C339.856 140.11 339.916 140.098 339.974 140.109C340.89 140.295 341.837 140.262 342.737 140.011C343.637 139.761 344.466 139.301 345.154 138.669C345.194 138.626 345.249 138.601 345.307 138.599C345.365 138.597 345.422 138.619 345.465 138.658C345.507 138.698 345.532 138.753 345.534 138.812C345.536 138.87 345.515 138.927 345.475 138.969C344.307 140.068 342.759 140.674 341.155 140.658Z" fill="#263238"/>
<path d="M360.207 136.566C359.515 138.209 358.206 139.515 356.56 140.202C354.364 141.083 353.007 139.166 353.4 136.98C353.753 134.991 355.317 132.142 357.627 132.204C358.13 132.226 358.619 132.373 359.051 132.632C359.482 132.891 359.842 133.253 360.098 133.686C360.354 134.119 360.498 134.609 360.517 135.112C360.536 135.615 360.43 136.115 360.207 136.566Z" fill="#B55B52"/>
<path d="M348.334 127.946C348.214 127.931 348.103 127.872 348.024 127.78C347.692 127.339 347.261 126.982 346.766 126.737C346.272 126.493 345.726 126.367 345.175 126.371C345.117 126.377 345.06 126.371 345.005 126.355C344.95 126.338 344.898 126.31 344.854 126.274C344.81 126.237 344.773 126.192 344.746 126.141C344.72 126.09 344.703 126.035 344.698 125.978C344.692 125.92 344.698 125.863 344.715 125.808C344.731 125.753 344.759 125.702 344.795 125.657C344.832 125.613 344.877 125.576 344.928 125.549C344.979 125.523 345.034 125.506 345.092 125.501C345.79 125.478 346.485 125.623 347.116 125.924C347.747 126.225 348.296 126.673 348.718 127.231C348.787 127.324 348.818 127.441 348.805 127.556C348.791 127.672 348.734 127.778 348.645 127.853C348.557 127.922 348.446 127.955 348.334 127.946Z" fill="#263238"/>
<path d="M334.504 125.222C334.4 125.181 334.315 125.104 334.265 125.004C334.239 124.952 334.223 124.896 334.219 124.838C334.214 124.78 334.221 124.722 334.24 124.667C334.258 124.612 334.287 124.562 334.325 124.518C334.364 124.474 334.41 124.439 334.462 124.414C335.083 124.091 335.773 123.923 336.472 123.923C337.172 123.923 337.861 124.091 338.482 124.414C338.532 124.443 338.575 124.482 338.61 124.528C338.644 124.574 338.67 124.626 338.684 124.682C338.699 124.738 338.702 124.796 338.694 124.853C338.686 124.91 338.667 124.965 338.637 125.014C338.608 125.064 338.569 125.107 338.523 125.142C338.477 125.177 338.425 125.202 338.369 125.217C338.313 125.231 338.255 125.234 338.198 125.226C338.141 125.218 338.086 125.199 338.037 125.17C337.544 124.919 336.999 124.788 336.446 124.788C335.893 124.788 335.348 124.919 334.856 125.17C334.805 125.203 334.746 125.225 334.686 125.234C334.625 125.243 334.563 125.239 334.504 125.222Z" fill="#263238"/>
<path d="M344.895 130.142L343.206 129.313C343.206 129.313 343.88 130.867 344.895 130.142Z" fill="#263238"/>
<path d="M327.863 223.714L329.448 302.005L370.163 298.368C377.156 270.137 381.03 247.387 367.314 223.693L327.863 223.714Z" fill="#263238"/>
<path opacity="0.2" d="M347.143 283.999L352.603 257.384L344.822 242.838L347.143 283.999Z" fill="black"/>
<path d="M341.072 159.347C337.695 162.331 333.426 169.987 332.68 179.031C332.038 186.863 334.752 224.76 336.493 231.318C330.184 230.883 325.843 225.599 325.843 225.599C325.843 225.599 321.202 184.947 321.336 175.467C321.471 165.988 322.869 162.289 329.054 161.098C335.239 159.907 341.072 159.347 341.072 159.347Z" fill="#6C63FF"/>
<path d="M353.722 159.42C357.803 165.771 356.301 172.028 355.358 179.819C353.338 196.395 354.83 224.139 357.627 231.36C363.937 230.925 369.852 226.18 369.852 226.18C369.852 226.18 368.816 199.037 371.8 175.012C372.96 165.605 371.033 161.399 364.848 160.207C361.186 159.49 357.449 159.226 353.722 159.42Z" fill="#6C63FF"/>
<path d="M360.6 197.006L350.528 220.71C350.349 221.131 350.545 221.618 350.967 221.797L385.951 236.661C386.372 236.84 386.859 236.644 387.038 236.222L397.109 212.518C397.288 212.097 397.092 211.61 396.67 211.431L361.686 196.567C361.265 196.388 360.779 196.585 360.6 197.006Z" fill="#263238"/>
<path d="M360.896 197.743L350.861 221.361C350.685 221.777 350.879 222.258 351.295 222.435L385.277 236.874C385.693 237.05 386.174 236.856 386.351 236.44L396.386 212.822C396.562 212.406 396.369 211.926 395.953 211.749L361.97 197.31C361.554 197.133 361.073 197.327 360.896 197.743Z" fill="#FAFAFA"/>
<path d="M363.709 198.331L353.637 222.035C353.458 222.456 353.655 222.943 354.076 223.122L389.06 237.986C389.481 238.165 389.968 237.969 390.147 237.547L400.218 213.843C400.397 213.422 400.201 212.936 399.78 212.757L364.796 197.892C364.374 197.713 363.888 197.91 363.709 198.331Z" fill="#6C63FF"/>
<path opacity="0.6" d="M363.709 198.331L353.637 222.035C353.458 222.456 353.655 222.943 354.076 223.122L389.06 237.986C389.481 238.165 389.968 237.969 390.147 237.547L400.218 213.843C400.397 213.422 400.201 212.936 399.78 212.757L364.796 197.892C364.374 197.713 363.888 197.91 363.709 198.331Z" fill="white"/>
<path d="M369.23 165.273C371.613 167.055 373.675 168.858 375.788 170.754C377.902 172.65 379.86 174.67 381.797 176.752C383.757 178.852 385.59 181.066 387.288 183.383C389.053 185.761 390.596 188.296 391.898 190.956L392.375 191.992L392.499 192.251L392.686 192.738C392.809 193.075 392.906 193.422 392.976 193.774C393.198 194.854 393.24 195.964 393.1 197.058C392.864 198.707 392.429 200.321 391.805 201.865C390.713 204.566 389.393 207.169 387.858 209.645C384.935 214.388 381.641 218.892 378.005 223.113L374.493 220.575C375.809 218.275 377.146 215.913 378.409 213.561C379.673 211.21 380.896 208.848 381.994 206.465C383.1 204.188 384.038 201.833 384.802 199.42C385.124 198.412 385.326 197.368 385.402 196.312C385.426 196.047 385.402 195.781 385.33 195.525L385.226 195.328L384.812 194.54C382.211 190.203 379.079 186.208 375.488 182.647C373.696 180.772 371.779 179 369.842 177.239C367.904 175.478 365.853 173.748 363.937 172.204L369.23 165.273Z" fill="#B55B52"/>
<path d="M368.723 161.761C369.759 162.611 370.619 163.367 371.551 164.185C372.484 165.004 373.343 165.802 374.224 166.62C375.985 168.267 377.715 169.946 379.404 171.686C382.859 175.188 386.045 178.946 388.935 182.927C390.457 185.029 391.815 187.246 392.996 189.557C393.317 190.148 393.587 190.78 393.877 191.401L394.001 191.671L394.229 192.261C394.354 192.631 394.458 193.008 394.54 193.39C394.662 194.015 394.725 194.65 394.726 195.286C394.665 197.021 394.315 198.733 393.69 200.352C392.771 202.745 391.674 205.065 390.406 207.293C389.256 209.365 388.075 211.386 386.977 213.354L379.031 209.521C379.922 207.335 380.834 205.221 381.642 203.149C382.437 201.254 383.084 199.301 383.579 197.306C383.749 196.746 383.798 196.157 383.724 195.576C383.724 195.576 383.724 195.628 383.724 195.763C383.733 195.865 383.754 195.966 383.786 196.063C383.804 196.128 383.829 196.19 383.859 196.25C383.859 196.25 383.859 196.167 383.786 196.136C383.558 195.721 383.362 195.307 383.103 194.893C382.058 193.165 380.888 191.517 379.601 189.961C376.854 186.634 373.862 183.518 370.65 180.637C369.034 179.156 367.355 177.726 365.656 176.327C364.807 175.633 363.947 174.939 363.087 174.255C362.227 173.572 361.315 172.898 360.538 172.339L368.723 161.761Z" fill="#6C63FF"/>
<path d="M379.176 220.026L375.395 219.383L368.194 223.258C367.141 223.823 366.328 224.751 365.905 225.869L365.035 228.158C364.887 228.543 364.881 228.968 365.018 229.357C365.155 229.746 365.425 230.074 365.781 230.282L369.997 232.737C370.372 232.953 370.813 233.023 371.235 232.933C371.658 232.843 372.032 232.6 372.287 232.25L375.343 227.62C375.343 227.62 379.974 223.776 379.176 220.026Z" fill="#B55B52"/>
<path d="M351.359 120.104C343.672 122.331 332.225 118.415 332.142 139.093C329.303 134.214 328.692 124.103 332.142 116.975C335.498 110.044 352.478 107.982 356.539 113.732C360.601 119.482 351.359 120.104 351.359 120.104Z" fill="#263238"/>
</svg>
