<svg width="518" height="371" viewBox="0 0 518 371" fill="none" xmlns="http://www.w3.org/2000/svg">
<g clip-path="url(#clip0_11417_78274)">
<path d="M419.21 236.066C419.674 236.108 420.139 236.008 420.543 235.778C420.947 235.548 421.27 235.199 421.469 234.779C421.669 234.359 421.734 233.888 421.656 233.43C421.578 232.972 421.362 232.549 421.035 232.218C420.989 231.988 420.955 231.823 420.909 231.594C420.932 231.545 420.954 231.497 420.977 231.448C421.496 230.367 422.323 229.462 423.355 228.849C424.387 228.235 425.577 227.94 426.776 228C427.975 228.061 429.129 228.474 430.094 229.187C431.059 229.901 431.791 230.884 432.199 232.012C433.828 236.516 435.959 241.05 436.317 245.748C436.474 247.825 436.27 249.913 435.713 251.92C440.462 242.722 443.177 232.611 443.673 222.273C443.794 219.679 443.771 217.079 443.602 214.488C443.462 212.363 443.229 210.249 442.903 208.146C441.118 196.733 436.651 185.906 429.866 176.553C426.468 174.49 423.784 171.435 422.177 167.8C421.594 166.493 421.203 165.109 421.018 163.691C421.408 163.76 421.807 163.811 422.199 163.855C422.321 163.867 422.45 163.88 422.572 163.892L422.618 163.896C423.05 163.936 423.483 163.85 423.867 163.649C424.251 163.448 424.568 163.14 424.781 162.763C424.993 162.386 425.093 161.955 425.066 161.523C425.04 161.091 424.889 160.676 424.632 160.327C424.472 160.111 424.312 159.894 424.151 159.677C423.908 159.343 423.659 159.015 423.416 158.681C423.387 158.649 423.361 158.615 423.336 158.58C423.057 158.199 422.777 157.825 422.498 157.443C423.078 156.629 423.839 155.959 424.721 155.487C427.775 153.885 431.82 155.281 433.842 158.068C435.871 160.856 436.102 164.644 435.197 167.967C434.328 170.789 432.985 173.444 431.225 175.816C431.377 176.03 431.535 176.237 431.687 176.451C434.458 180.375 436.837 184.561 438.79 188.948C438.49 184.121 439.342 179.291 441.274 174.856C443.215 170.73 446.652 167.338 449.702 163.835C453.366 159.626 460.373 161.863 460.725 167.43C460.728 167.484 460.731 167.538 460.735 167.592C460.295 167.813 459.865 168.05 459.442 168.302C458.911 168.622 458.489 169.094 458.232 169.658C457.974 170.221 457.893 170.849 457.999 171.459C458.105 172.07 458.393 172.634 458.825 173.078C459.257 173.522 459.813 173.826 460.421 173.948L460.483 173.961C460.259 175.495 459.918 177.01 459.464 178.492C458.156 182.629 456.007 186.451 453.151 189.719C450.295 192.986 446.795 195.629 442.87 197.482C442.612 197.599 442.361 197.716 442.104 197.827C443.982 204.054 445.041 210.499 445.256 216.999C445.371 220.834 445.174 224.671 444.67 228.474L444.695 228.339C445.719 224.132 448.163 220.407 451.617 217.793C456.743 213.969 463.789 212.801 469.267 209.791C469.85 209.454 470.518 209.29 471.19 209.32C471.863 209.35 472.514 209.571 473.065 209.958C473.616 210.345 474.045 210.881 474.301 211.504C474.557 212.126 474.629 212.809 474.51 213.471C474.501 213.518 474.491 213.565 474.482 213.612C473.673 213.899 472.882 214.235 472.115 214.619C471.676 214.841 471.245 215.077 470.822 215.329C470.292 215.649 469.87 216.122 469.612 216.685C469.355 217.248 469.274 217.877 469.379 218.487C469.485 219.097 469.773 219.661 470.205 220.106C470.637 220.55 471.193 220.853 471.801 220.976L471.863 220.988C471.908 220.997 471.947 221.005 471.991 221.014C470.484 224.188 468.441 227.079 465.952 229.561C462.88 232.562 459.227 234.905 455.217 236.445C451.207 237.985 446.924 238.691 442.632 238.518L442.625 238.518C441.225 243.522 439.307 248.368 436.904 252.976L418.913 252.139C418.858 251.936 418.81 251.727 418.761 251.525C420.421 251.707 422.098 251.685 423.753 251.46C422.495 249.761 421.237 248.049 419.978 246.351C419.95 246.319 419.923 246.285 419.899 246.25C419.261 245.381 418.616 244.518 417.978 243.648L417.977 243.647C418.061 241.078 418.475 238.53 419.21 236.066L419.21 236.066Z" fill="#F2F2F2"/>
<path d="M304.082 73.9668C304.968 74.2105 305.79 74.6454 306.49 75.2408C307.19 75.8363 307.751 76.5779 308.133 77.4134C308.515 78.2488 308.709 79.1578 308.701 80.0763C308.694 80.9948 308.485 81.9005 308.089 82.7296L317.697 93.4047L312.63 100.822L299.273 85.5562C297.923 84.7996 296.898 83.5745 296.392 82.1131C295.886 80.6517 295.934 79.0555 296.526 77.6269C297.119 76.1984 298.216 75.0368 299.608 74.3622C301.001 73.6876 302.593 73.5469 304.082 73.9668Z" fill="#A0616A"/>
<path d="M394.033 100.179C393.166 98.7706 392.03 97.5464 390.69 96.5772C389.349 95.608 387.83 94.9129 386.22 94.5316C384.61 94.1503 382.941 94.0904 381.307 94.3554C379.674 94.6203 378.109 95.2049 376.702 96.0755L345.103 115.633L311.017 86.6782L302.537 94.5689L340.192 143.392L389.133 117.895C387.991 118.49 395.413 102.424 394.033 100.179Z" fill="#CCCCCC"/>
<path d="M331.434 165.21C331.437 180.806 328.365 196.249 322.394 210.659C316.424 225.068 307.671 238.161 296.635 249.188C285.6 260.216 272.499 268.964 258.08 274.93C243.661 280.897 228.207 283.967 212.6 283.964C146.971 283.964 93.767 230.795 93.767 165.21C93.7557 152.453 95.8021 139.777 99.8275 127.67C107.731 104.027 122.871 83.4639 143.109 68.8898C163.346 54.3158 187.656 46.4679 212.6 46.4561C234.114 46.4486 255.225 52.2794 273.681 63.3261C292.137 74.3727 307.245 90.2206 317.392 109.178C319.907 113.855 322.102 118.698 323.96 123.672C324.218 124.365 324.469 125.058 324.713 125.757V125.764C325.802 128.838 326.762 131.97 327.591 135.159C330.151 144.971 331.442 155.07 331.434 165.21Z" fill="#3F3D56"/>
<path d="M199.599 85.0879C194.259 82.2019 188.329 80.5728 182.263 80.3248C176.197 80.0768 170.155 81.2164 164.596 83.6568C159.702 85.7852 154.549 89.6035 152.916 96.4985C159.519 92.6042 168.067 98.7571 169.766 108.628L169.369 108.737C168.472 115.574 170.475 123.017 174.354 127.256C174.863 122.853 177.76 119.856 180.61 117.984C183.46 116.112 186.612 114.752 188.788 111.534C191.366 107.719 192.021 102.144 193.045 97.0579C194.07 91.9717 196.013 86.5051 199.599 85.0879Z" fill="white"/>
<path d="M162.638 143.267C160.809 146.011 158.366 147.733 156.174 149.877C153.989 152.028 151.91 154.931 151.474 158.659C151.197 161.047 151.626 163.475 151.566 165.889C151.507 168.304 150.701 171.022 149.058 171.623C146.463 172.559 144.482 167.743 141.815 167.407C139.696 167.143 137.788 170.475 138.402 173.364C139.016 176.254 141.901 177.534 143.558 175.647C145.057 178.161 144.001 182.72 141.749 183.491C141.512 185.075 141.274 186.652 141.043 188.235C135.352 184.257 129.602 180.212 124.763 174.387C119.381 167.963 116.043 160.078 115.177 151.745C114.55 145.048 115.481 137.389 112.404 132.236C109.942 128.113 105.716 127.202 101.914 127.459C101.221 127.506 100.521 127.585 99.8276 127.671C102.07 120.94 104.918 114.425 108.337 108.208C109.111 107.876 109.83 107.429 110.47 106.882C114.008 103.88 115.58 97.8039 118.451 93.6013C118.636 93.3308 118.828 93.0669 119.026 92.8097C121.964 88.9765 125.898 87.0039 129.701 85.1698C138.118 81.086 146.78 76.9494 155.666 77.5168L153.138 77.7609C150.187 86.0209 147.233 94.2809 144.278 102.541C143.829 103.808 143.376 105.076 142.918 106.348C141.241 111.045 139.511 116.046 139.769 121.304C139.921 124.418 141.003 127.743 143.063 128.812C144.984 129.801 147.084 128.588 148.939 127.387C149.724 126.885 150.503 126.384 151.289 125.876C154.108 124.062 157.231 122.201 160.208 123.415C162.935 124.524 164.948 128.225 165.331 132.216C165.682 136.096 164.735 139.983 162.638 143.267Z" fill="white"/>
<path d="M179.403 199.66C171.17 194.594 162.937 189.528 154.704 184.462L154.844 184.103C149.725 186.051 147.599 195.144 148.445 202.58C149.291 210.017 152.16 216.664 153.609 223.91C155.563 233.826 154.826 244.083 151.473 253.618C162.299 241.478 171.88 228.285 180.073 214.235C181.217 212.465 182.089 210.532 182.66 208.503C183.183 206.344 183.102 203.748 182.055 202.017C181.381 201.023 180.47 200.213 179.403 199.66Z" fill="white"/>
<path d="M146.91 107.497C146.036 109.461 145.699 112.081 146.493 114.113C147.303 116.189 149.016 117.127 150.593 117.908L155.142 120.161C156.656 120.911 158.287 121.668 159.83 121.051C161.69 120.307 162.981 117.392 162.647 114.686C162.292 111.806 160.475 109.824 158.795 108.137C156.444 105.776 154.093 103.416 151.741 101.055L150.416 102.677C148.983 104.074 147.798 105.703 146.91 107.497Z" fill="white"/>
<path d="M307.046 138.286C309.093 138.767 311.14 139.249 313.186 139.73C312.83 146.638 309.403 153.031 304.809 155.347C302.894 156.31 300.762 156.666 299.177 158.467C297.745 160.103 297.018 162.65 296.352 165.084C295.183 169.333 294.014 173.582 292.846 177.831C291.592 182.409 289.981 187.496 286.719 189.145C283.92 190.564 280.718 188.828 278.566 185.919C276.414 183.01 275.1 179.097 273.826 175.284C273.905 179.44 271.971 183.518 269.231 184.962C266.485 186.407 263.144 185.101 261.309 181.875C259.989 179.559 259.441 176.504 258.147 174.156C256.853 171.807 254.139 170.461 252.727 172.665C251.796 174.129 251.914 176.373 251.452 178.233C250.733 181.123 248.554 182.937 246.395 183.095C244.243 183.254 242.144 182.013 240.341 180.331C236.625 176.848 233.885 171.319 232.822 165.177C232.353 162.439 232.221 159.457 233.033 156.89C233.845 154.324 235.806 152.345 237.754 152.833C239.034 150.128 236.506 146.539 234.228 146.856C231.944 147.172 230.155 149.62 228.28 151.5C226.412 153.381 223.797 154.746 221.916 152.879C221.929 154.614 220.516 155.762 219.295 155.617C218.08 155.478 216.997 154.502 215.882 153.809C211.571 151.124 206.098 152.905 203.034 157.985C204.949 149.844 207.755 140.502 213.637 138.589C216.04 137.804 218.661 138.45 220.932 137.091C224.953 134.683 225.765 125.585 222.292 121.832C222.734 125.381 222.649 129.524 220.774 131.952C218.899 134.38 214.964 132.796 215.202 129.207C214.66 131.681 211.967 132.058 210.726 130.157C209.478 128.257 209.583 125.15 210.468 122.881C211.353 120.611 212.858 118.981 214.317 117.418C217.453 114.06 220.635 110.662 224.266 108.551C227.904 106.44 232.102 105.727 235.746 107.825C237.668 108.934 239.358 110.781 241.318 111.757C243.279 112.74 245.768 112.615 247.069 110.319C248.528 107.759 247.841 103.959 248.383 100.759C249.353 95.1053 255.011 92.4597 258.147 96.1938C255.803 95.5935 253.38 98.3644 253.09 101.723C252.792 105.081 254.489 108.472 256.76 109.488C260.576 111.177 264.313 106.928 267.198 102.996C270.208 98.8791 273.223 94.7645 276.242 90.6521C276.724 89.9519 277.266 89.2941 277.86 88.686C278.805 87.765 280.066 87.2375 281.386 87.2106C282.706 87.1836 283.988 87.6592 284.97 88.5409C288.02 91.0281 289.453 96.128 291.955 99.6378C295.586 104.738 301.019 105.978 306.076 106.968C309.846 107.7 313.618 108.437 317.392 109.178C319.908 113.855 322.102 118.698 323.961 123.672C317.57 126.384 311.674 131.457 307.046 138.286Z" fill="white"/>
<path d="M319.234 217.666C316.405 223.405 313.115 228.906 309.397 234.113C307.02 233.097 304.465 234.912 302.24 236.614C299.917 238.395 297.124 240.13 294.741 238.507C292.305 236.845 291.519 232.194 292.291 228.506C293.064 224.824 294.991 221.895 296.86 219.111C298.84 216.155 300.96 213.087 303.713 211.939C306.472 210.791 310.017 212.414 310.823 216.333L312.777 216.267C311.681 214.763 312.255 211.649 313.728 211.102C315.424 210.462 316.897 212.79 317.9 214.849C318.349 215.779 318.804 216.716 319.234 217.666Z" fill="white"/>
<path d="M244.391 189.799C240.191 190.063 236.864 184.895 234.653 179.812C232.442 174.728 230.425 168.915 226.635 166.328C224.469 164.849 222 164.646 219.651 163.93C217.302 163.213 214.844 161.731 213.721 158.712L211.057 157.636C207.538 159.613 203.972 161.627 200.94 164.845C197.54 168.454 195.422 173.082 194.913 178.014C194.404 183.343 196.283 189.286 199.795 191.288C202.57 192.87 205.801 191.873 208.611 193.321C212.123 195.131 214.208 200.387 214.997 205.577C215.787 210.767 215.587 216.16 216.151 221.409C216.716 226.658 218.272 232.119 221.493 234.809C225.523 238.175 231.437 235.378 233.245 229.251C234.132 226.246 234.101 222.854 234.765 219.734C235.933 214.24 239.085 210.164 241.586 205.657C244.086 201.15 246.054 195.029 244.391 189.799Z" fill="white"/>
<path d="M202.886 135.811C203.277 136.171 203.643 136.559 203.98 136.971C204.328 137.572 204.506 138.255 204.494 138.949C204.482 139.643 204.281 140.32 203.912 140.908C204.418 140.88 204.913 140.746 205.365 140.517C205.816 140.287 206.216 139.967 206.537 139.575C207.304 138.703 207.978 137.753 208.549 136.742C208.978 136.044 209.434 135.1 209.143 134.271C208.944 133.705 208.475 133.464 208.146 133.038C207.625 132.364 207.496 131.292 207.226 130.366C206.643 128.367 205.247 126.896 203.731 126.686L203.942 126.726C203.308 126.943 202.866 127.948 203.006 128.852C203.134 129.675 203.663 130.359 203.611 131.198C203.535 132.406 202.327 132.972 202.253 134.18C202.241 134.786 202.468 135.372 202.886 135.811Z" fill="white"/>
<path d="M195.689 115.293C195.695 115.291 195.702 115.291 195.708 115.289C195.837 115.172 195.957 115.044 196.066 114.908L195.689 115.293Z" fill="#E6E6E6"/>
<path d="M196.949 120.961C197.878 120.364 198.396 118.713 198.089 117.332C197.784 115.959 196.704 115.036 195.708 115.289C195.419 115.582 195.06 115.797 194.665 115.913C194.271 116.029 193.853 116.043 193.451 115.953C192.835 115.795 192.159 115.387 191.625 115.851C191.32 116.197 191.106 116.614 191.003 117.064C190.806 117.671 190.608 118.277 190.41 118.884C190.316 119.101 190.292 119.342 190.34 119.573C190.378 119.666 190.439 119.747 190.517 119.81C190.596 119.872 190.689 119.913 190.788 119.929C191.974 120.279 193.161 120.628 194.347 120.978C195.211 121.232 196.145 121.478 196.949 120.961Z" fill="white"/>
<path d="M286.498 199.205C285.949 198.308 285.401 197.411 284.853 196.514C284.314 195.475 283.578 194.551 282.685 193.794C282.489 193.63 282.262 193.507 282.017 193.431C281.772 193.356 281.515 193.33 281.26 193.356C281.005 193.381 280.758 193.457 280.533 193.58C280.308 193.702 280.11 193.868 279.951 194.068L280.017 194.58C281.267 196.147 282.589 197.888 282.907 200.214C283.032 201.131 282.988 202.079 283.098 203C283.207 203.921 283.519 204.876 284.114 205.273C284.977 205.849 285.991 205 286.605 203.962C287.155 203.111 287.401 202.099 287.305 201.09C287.168 200.413 286.893 199.772 286.498 199.205Z" fill="white"/>
<path d="M310.901 164.944C311.059 163.904 311.218 162.865 311.376 161.826C311.634 160.685 311.666 159.504 311.471 158.35C311.426 158.098 311.332 157.858 311.193 157.642C311.055 157.427 310.874 157.242 310.663 157.098C310.452 156.953 310.214 156.853 309.963 156.801C309.712 156.75 309.453 156.75 309.202 156.8L308.923 157.235C308.87 159.238 308.76 161.421 307.503 163.404C307.008 164.186 306.364 164.884 305.854 165.659C305.345 166.434 304.968 167.365 305.167 168.051C305.456 169.048 306.779 169.05 307.918 168.652C308.887 168.354 309.727 167.739 310.304 166.905C310.635 166.299 310.838 165.631 310.901 164.944Z" fill="#E6E6E6"/>
<path d="M295.099 200.373C295.367 199.603 294.98 198.719 294.898 197.868C294.859 196.769 295.151 195.683 295.736 194.751C296.317 193.872 296.757 192.907 297.04 191.893C297.16 191.43 297.138 190.943 296.978 190.493C296.796 190.086 296.357 189.9 296.104 190.222L296.644 190.57C295.915 190.44 295.167 190.476 294.454 190.676C294.048 190.831 293.684 191.082 293.396 191.408C293.107 191.733 292.901 192.123 292.794 192.545C292.705 193.203 292.56 193.852 292.359 194.485C292.037 195.146 291.414 195.366 291.023 195.947C290.756 196.461 290.621 197.034 290.63 197.613C290.64 198.193 290.794 198.761 291.078 199.266C291.569 200.093 292.351 200.707 293.271 200.99C293.93 201.226 294.798 201.239 295.099 200.373Z" fill="white"/>
<path d="M310.417 204.991C310.655 205.611 310.974 206.196 311.366 206.732C312.099 207.47 313.096 207.017 313.986 206.837C314.793 206.71 315.62 206.803 316.378 207.107C317.137 207.411 317.799 207.915 318.294 208.564C317.949 206.845 317.196 205.233 316.099 203.865C315.001 202.496 313.591 201.411 311.987 200.7C309.89 199.846 307.681 199.763 305.5 199.687L305.123 199.783C306.083 202.575 309.097 202.513 310.417 204.991Z" fill="white"/>
<path d="M245.54 210.703L245.546 210.715C245.582 210.645 245.619 210.575 245.655 210.504L245.54 210.703Z" fill="#E6E6E6"/>
<path d="M243.216 215.198C242.71 216.118 242.274 217.074 241.913 218.06C241.435 219.657 241.118 221.297 240.968 222.957C240.85 223.901 240.813 225.106 241.405 225.566C241.575 225.679 241.78 225.726 241.982 225.698C242.184 225.671 242.369 225.571 242.503 225.417C242.832 225.069 243.101 224.67 243.299 224.235C244.462 222.233 245.365 220.092 245.986 217.862C246.552 215.513 246.547 212.749 245.546 210.715C244.769 212.21 243.993 213.704 243.216 215.198Z" fill="white"/>
<path d="M220.799 95.444C221.168 95.8046 221.635 96.0493 222.141 96.1482C222.648 96.247 223.172 96.1955 223.65 96.0001C224.639 95.5679 225.547 94.9689 226.333 94.2292C226.984 93.748 227.536 93.1461 227.959 92.4563C228.192 92.0441 228.342 91.59 228.399 91.1199C228.456 90.6499 228.419 90.1732 228.292 89.7172C227.924 88.6435 226.992 88.2835 226.17 88.0398C224.853 87.6496 223.536 87.2595 222.22 86.8693L223.172 86.0114C222.192 85.4859 221.108 86.4613 220.496 87.6688C220.103 88.4573 219.829 89.2996 219.683 90.1682C219.355 92.0636 219.676 94.3207 220.799 95.444Z" fill="#E6E6E6"/>
<path d="M244.044 87.6459C244.415 88.0547 244.928 88.3071 245.478 88.3519C246.029 88.3966 246.576 88.2304 247.008 87.8869C247.38 87.6076 247.689 87.2531 247.915 86.8465C248.141 86.4399 248.279 85.9902 248.319 85.5269C248.412 84.492 247.9 83.3417 247.169 83.2523L247.336 82.2833C245.927 82.0291 244.194 81.9781 243.439 83.6879C243.184 84.3428 243.106 85.053 243.212 85.7476C243.318 86.4422 243.605 87.0968 244.044 87.6459Z" fill="#E6E6E6"/>
<path d="M240.939 36.1164C232.679 35.1854 224.388 37.5713 217.889 42.7493C211.39 47.9274 207.215 55.4733 206.284 63.7272C204.343 80.915 213.405 118.239 229.925 133.689C237.703 104.087 264.961 86.5292 268.568 70.7482C272.422 53.8856 258.138 38.0552 240.939 36.1164Z" fill="#6C63FF"/>
<path d="M235.226 74.3265C240.871 74.3265 245.447 69.7535 245.447 64.1125C245.447 58.4714 240.871 53.8984 235.226 53.8984C229.581 53.8984 225.005 58.4714 225.005 64.1125C225.005 69.7535 229.581 74.3265 235.226 74.3265Z" fill="white"/>
<path d="M224.479 148.417C228.177 148.417 231.174 145.421 231.174 141.727C231.174 138.032 228.177 135.037 224.479 135.037C220.782 135.037 217.785 138.032 217.785 141.727C217.785 145.421 220.782 148.417 224.479 148.417Z" fill="#6C63FF"/>
<path opacity="0.2" d="M243.683 56.7947C244.833 57.4855 245.836 58.3961 246.635 59.4743C247.433 60.5525 248.011 61.7774 248.336 63.0788C248.661 64.3803 248.726 65.7329 248.527 67.0595C248.329 68.386 247.871 69.6606 247.179 70.8103C246.488 71.96 245.577 72.9623 244.498 73.7602C243.419 74.558 242.193 75.1356 240.891 75.46C238.261 76.1153 235.478 75.6996 233.154 74.3044C235.523 74.831 238.003 74.498 240.148 73.3648C242.294 72.2316 243.966 70.3723 244.865 68.1196C245.765 65.867 245.832 63.368 245.056 61.0701C244.28 58.7721 242.711 56.8251 240.63 55.5776C241.707 55.8161 242.738 56.2271 243.683 56.7947Z" fill="#231F20"/>
<path opacity="0.2" d="M268.608 70.7811C265.001 86.5621 237.743 104.12 229.965 133.722C228.411 132.255 226.968 130.675 225.648 128.996C234.389 101.171 259.95 84.2632 263.434 69.0159C266.553 55.3693 257.792 42.4 245.221 36.9214C260.439 40.7442 272.139 55.3281 268.608 70.7811Z" fill="#231F20"/>
<path d="M145.159 75.9701C138.956 75.2709 132.73 77.0626 127.849 80.9512C122.968 84.8397 119.833 90.5064 119.134 96.7048C117.677 109.612 124.481 137.641 136.888 149.244C142.729 127.014 163.199 113.828 165.907 101.977C168.801 89.3141 158.075 77.4261 145.159 75.9701Z" fill="#6C63FF"/>
<path d="M140.869 104.665C145.108 104.665 148.544 101.23 148.544 96.9941C148.544 92.7579 145.108 89.3237 140.869 89.3237C136.63 89.3237 133.193 92.7579 133.193 96.9941C133.193 101.23 136.63 104.665 140.869 104.665Z" fill="white"/>
<path d="M132.798 160.304C135.575 160.304 137.826 158.054 137.826 155.28C137.826 152.505 135.575 150.256 132.798 150.256C130.022 150.256 127.771 152.505 127.771 155.28C127.771 158.054 130.022 160.304 132.798 160.304Z" fill="#6C63FF"/>
<path opacity="0.2" d="M147.219 91.4989C148.083 92.0177 148.837 92.7015 149.436 93.5112C150.036 94.3209 150.47 95.2408 150.714 96.2181C150.957 97.1955 151.006 98.2112 150.857 99.2074C150.708 100.204 150.364 101.161 149.845 102.024C149.326 102.888 148.642 103.64 147.832 104.239C147.021 104.839 146.101 105.272 145.123 105.516C144.145 105.76 143.128 105.808 142.132 105.659C141.135 105.511 140.177 105.167 139.313 104.648C141.092 105.044 142.954 104.793 144.565 103.942C146.176 103.091 147.432 101.695 148.107 100.004C148.783 98.3119 148.834 96.4353 148.251 94.7096C147.668 92.9839 146.49 91.5218 144.927 90.585C145.735 90.764 146.51 91.0727 147.219 91.4989Z" fill="#231F20"/>
<path opacity="0.2" d="M165.937 102.002C163.229 113.853 142.759 127.039 136.918 149.269C135.751 148.167 134.667 146.981 133.676 145.719C140.24 124.824 159.435 112.127 162.052 100.677C164.394 90.4284 157.815 80.689 148.375 76.5747C159.802 79.4455 168.589 90.3975 165.937 102.002Z" fill="#231F20"/>
<path d="M385.463 353.834H377.035L373.026 321.35L385.465 321.35L385.463 353.834Z" fill="#A0616A"/>
<path d="M389.996 369.825H384.016L382.949 364.183L380.215 369.825H364.355C363.595 369.825 362.854 369.582 362.242 369.132C361.63 368.682 361.177 368.048 360.951 367.322C360.725 366.597 360.736 365.818 360.984 365.1C361.232 364.382 361.703 363.762 362.329 363.33L374.995 354.589V348.885L388.317 349.679L389.996 369.825Z" fill="#2F2E41"/>
<path d="M352.821 353.834H344.394L340.384 321.35L352.823 321.35L352.821 353.834Z" fill="#A0616A"/>
<path d="M357.355 369.825H351.375L350.307 364.183L347.574 369.825H331.713C330.953 369.825 330.213 369.582 329.6 369.132C328.988 368.682 328.536 368.048 328.309 367.322C328.083 366.597 328.095 365.818 328.343 365.1C328.591 364.382 329.062 363.762 329.687 363.33L342.353 354.589V348.885L355.675 349.679L357.355 369.825Z" fill="#2F2E41"/>
<path d="M320.804 268.068C322.417 270.486 339.962 336.942 339.962 336.942L355.519 338.715L353.672 321.994L350.85 292.404L346.479 272.653C346.479 272.653 361.913 237.551 362.889 234.755L363.582 232.749L368.404 276.481C368.977 278.042 369.227 279.704 369.138 281.364C368.993 284.096 371.735 325.193 371.735 325.193L373.053 339.932L386.381 341.782L391.789 316.281C396.305 307.997 393.716 278.56 391.87 275.82C390.023 273.08 390.757 253.998 390.757 253.998C393.115 253.169 407.176 205.253 400.143 205.536C400.594 202.981 400.949 200.701 400.949 200.701L388.741 190.862L358.188 182.924L350.479 179.226C350.479 179.226 336.712 204.666 336.849 205.931C337.039 207.533 336.672 209.152 335.809 210.516L321.909 257.004C321.909 257.004 319.176 265.626 320.804 268.068Z" fill="#2F2E41"/>
<path d="M397.564 101.716L392.704 91.4028L376.16 92.0382L370.764 102.767C370.764 102.767 355.343 121.174 354.844 127.159C354.216 134.687 359.434 171.58 354.216 169.189C354.216 169.189 341.916 183.617 349.194 183.617C356.473 183.617 389.395 204.27 391.556 206.593C393.716 208.915 403.36 210.421 402.551 205.572C401.742 200.723 397.564 174.5 397.564 174.5L408.875 133.265C412.13 124.362 413.143 114.376 405.785 108.396L397.564 101.716Z" fill="#CCCCCC"/>
<path d="M336.286 71.3621C334.073 70.4843 331.709 70.0507 329.329 70.086C326.948 70.1212 324.598 70.6247 322.412 71.5677C320.227 72.5106 318.248 73.8745 316.59 75.5816C314.931 77.2887 313.626 79.3054 312.748 81.5167C309.053 90.8165 308.441 113.025 315.316 124.156C324.155 108.812 342.037 103.147 346.448 94.885C351.16 86.0571 345.592 75.0537 336.286 71.3621Z" fill="#6C63FF"/>
<path d="M328.845 92.0314C332.11 92.0314 334.757 89.386 334.757 86.1229C334.757 82.8597 332.11 80.2144 328.845 80.2144C325.579 80.2144 322.932 82.8597 322.932 86.1229C322.932 89.386 325.579 92.0314 328.845 92.0314Z" fill="white"/>
<path d="M311.055 131.686C313.194 131.686 314.928 129.953 314.928 127.816C314.928 125.678 313.194 123.946 311.055 123.946C308.916 123.946 307.183 125.678 307.183 127.816C307.183 129.953 308.916 131.686 311.055 131.686Z" fill="#6C63FF"/>
<path opacity="0.2" d="M334.677 83.3212C335.76 84.4528 336.349 85.9679 336.315 87.5335C336.281 89.0992 335.627 90.5872 334.495 91.6708C333.364 92.7543 331.848 93.3448 330.282 93.3123C328.715 93.2798 327.225 92.6272 326.14 91.4977C327.382 92.151 328.817 92.3412 330.187 92.0342C331.556 91.7272 332.772 90.9431 333.616 89.8221C334.461 88.7011 334.878 87.3165 334.794 85.9161C334.71 84.5156 334.13 83.1908 333.158 82.1787C333.722 82.4751 334.235 82.861 334.677 83.3212Z" fill="#231F20"/>
<path opacity="0.2" d="M346.465 94.9097C342.054 103.171 324.172 108.837 315.333 124.18C314.689 123.126 314.123 122.025 313.641 120.887C322.747 106.682 339.584 101.122 343.845 93.1395C347.659 85.9952 344.739 77.4267 338.554 72.4614C346.468 76.9039 350.784 86.8197 346.465 94.9097Z" fill="#231F20"/>
<path d="M309.31 126.483C310.21 126.298 311.14 126.312 312.034 126.525C312.928 126.737 313.765 127.143 314.485 127.714C315.206 128.284 315.792 129.006 316.203 129.828C316.614 130.649 316.84 131.551 316.864 132.469L330.278 137.614L329.137 146.523L310.297 138.991C308.75 138.93 307.28 138.304 306.165 137.232C305.049 136.16 304.366 134.717 304.244 133.175C304.122 131.633 304.571 130.101 305.505 128.867C306.438 127.634 307.792 126.786 309.31 126.483Z" fill="#A0616A"/>
<path d="M403.033 108.125C401.621 107.264 400.052 106.689 398.417 106.435C396.782 106.18 395.113 106.251 393.505 106.643C391.898 107.034 390.383 107.739 389.049 108.717C387.715 109.695 386.587 110.926 385.729 112.34L366.476 144.113L322.946 133.801L318.98 144.682L374.725 171.07L402.959 126.131C407.186 120.195 409.256 111.922 403.033 108.125Z" fill="#CCCCCC"/>
<path d="M403.752 69.1871C403.753 72.2494 403.002 75.2651 401.564 77.9696C400.127 80.674 398.047 82.9845 395.508 84.6983C392.968 86.412 390.046 87.4765 386.999 87.7984C383.952 88.1203 380.872 87.6897 378.03 86.5444C375.188 85.3991 372.671 83.5742 370.699 81.2298C368.728 78.8854 367.362 76.0932 366.723 73.0984C366.083 70.1035 366.189 66.9976 367.031 64.0532C367.873 61.1088 369.426 58.416 371.552 56.2111L371.642 56.1214C371.792 55.9642 371.942 55.8071 372.099 55.6574C372.1 55.6574 372.101 55.6572 372.102 55.6568C372.103 55.6565 372.104 55.6559 372.104 55.6552C372.105 55.6545 372.106 55.6537 372.106 55.6528C372.106 55.6518 372.107 55.6509 372.107 55.6499C372.301 55.4703 372.496 55.2907 372.698 55.1186C375.403 52.7486 378.735 51.2079 382.293 50.681C385.852 50.1541 389.487 50.6633 392.764 52.1477C396.04 53.6321 398.819 56.0288 400.768 59.0508C402.717 62.0727 403.753 65.592 403.752 69.1871Z" fill="#2F2E41"/>
<path d="M380.419 89.2031C389.089 89.2031 396.117 82.1796 396.117 73.5156C396.117 64.8517 389.089 57.8281 380.419 57.8281C371.749 57.8281 364.721 64.8517 364.721 73.5156C364.721 82.1796 371.749 89.2031 380.419 89.2031Z" fill="#9E616A"/>
<path d="M397.089 77.9895L394.488 77.5304C393.035 77.2664 391.697 76.5653 390.653 75.5208C389.609 74.4763 388.909 73.1382 388.647 71.6855L386.109 75.9361L385.998 75.9729C379.952 77.9791 373.66 77.3791 366.769 74.1409C364.798 73.2069 362.887 72.1537 361.045 70.9872L360.909 70.9023L360.898 70.7427C360.547 65.6395 361.692 61.3761 364.125 58.7379C365.06 57.7453 366.193 56.9612 367.452 56.4369C368.71 55.9127 370.065 55.6601 371.428 55.6957C371.525 55.6704 371.614 55.6212 371.688 55.5527C371.722 55.527 371.757 55.5015 371.792 55.4773V55.451L371.973 55.3661C372.36 55.1842 372.755 55.0099 373.15 54.8506C376.256 53.649 379.638 53.3475 382.908 53.9809C386.178 54.6143 389.203 56.1569 391.635 58.4313C396.47 63.0445 398.688 70.7863 397.154 77.6964L397.089 77.9895Z" fill="#2F2E41"/>
<path d="M430.199 91.3556C424.857 88.6002 431.728 78.5997 430.347 72.7527C428.967 66.9057 419.025 65.0251 418.392 59.051C417.758 53.0769 416.268 46.9152 412.323 42.3819C409.803 39.4852 406.088 37.3468 402.264 37.7096C400.97 37.8324 399.718 38.2324 398.593 38.8823C397.467 39.5323 396.496 40.4171 395.743 41.4762C394.991 42.5354 394.476 43.7442 394.233 45.0202C393.991 46.2962 394.026 47.6095 394.337 48.8707C393.248 47.3289 390.431 47.663 389.733 49.4167C389.113 50.9758 390.483 52.8642 392.095 53.0021C394.204 55.6054 396.62 58.3683 399.925 58.8934C400.451 59.0143 400.998 59.014 401.525 58.8925C402.051 58.7711 402.543 58.5317 402.963 58.1925C403.741 57.4464 403.801 55.9547 402.879 55.3971C407.032 57.0457 409.467 61.5331 410.083 65.9563C410.699 70.3794 409.847 74.8547 409.285 79.2851C408.723 83.7155 408.481 88.376 410.22 92.4901C412.273 97.351 417.002 100.835 422.162 101.952C427.322 103.069 432.818 101.978 437.489 99.5173C442.16 97.057 446.055 93.3011 449.237 89.0904C443.756 92.9798 436.173 94.4369 430.199 91.3556Z" fill="#2F2E41"/>
<path d="M396.421 77.5534C396.421 77.5534 391.771 60.2073 371.837 56.2038C371.815 56.1964 371.74 56.1664 371.642 56.1216C371.582 56.0841 371.507 56.0467 371.433 56.0093C371.657 55.882 371.874 55.7699 372.099 55.6575L372.102 55.657L372.104 55.6554L372.106 55.6529L372.107 55.65C372.301 55.4704 372.496 55.2908 372.698 55.1187L373.267 55.1412C373.267 55.1412 393.268 51.9758 396.421 77.5534Z" fill="#FD6584"/>
<path opacity="0.2" d="M386.009 133.212L374.751 146.247L356.149 140.758L376.428 150.097L386.009 133.212Z" fill="black"/>
<path d="M453.585 370.807L280.49 371C280.292 371 280.103 370.921 279.963 370.781C279.823 370.641 279.745 370.451 279.745 370.253C279.745 370.055 279.823 369.866 279.963 369.726C280.103 369.586 280.292 369.507 280.49 369.506L453.585 369.313C453.783 369.313 453.973 369.392 454.114 369.532C454.254 369.672 454.333 369.862 454.333 370.06C454.333 370.258 454.254 370.448 454.114 370.589C453.973 370.729 453.783 370.807 453.585 370.807Z" fill="#CACACA"/>
<path d="M461.183 254.731C453.078 254.731 444.194 254.425 434.532 253.813C384.556 250.641 319.823 239.615 252.256 222.766C184.689 205.917 122.36 185.257 76.7529 164.593C54.5361 154.527 37.4848 144.999 26.0733 136.272C13.9914 127.034 8.70662 118.981 10.3651 112.339C13.5966 99.398 42.2102 96.5669 65.6451 96.4707L65.6531 98.3526C33.4708 98.4846 14.4849 103.614 12.1925 112.794C9.27244 124.487 33.0874 142.742 77.5305 162.879C123.038 183.498 185.252 204.118 252.712 220.94C320.172 237.763 384.786 248.77 434.651 251.934C483.349 255.026 512.956 250.092 515.876 238.398C518.3 228.69 502.318 214.388 470.874 198.127L471.74 196.455C494.587 208.271 521.108 225.218 517.703 238.854C516.044 245.497 507.593 250.124 492.585 252.607C484.029 254.022 473.52 254.731 461.183 254.731Z" fill="#6C63FF"/>
</g>
<defs>
<clipPath id="clip0_11417_78274">
<rect width="518" height="371" fill="white"/>
</clipPath>
</defs>
</svg>
